<svg width="24" height="24" viewBox="0 0 24 24" fill="none" xmlns="http://www.w3.org/2000/svg">
<path d="M12 5.15918C9.54323 5.15918 7.54443 7.15797 7.54443 9.61478C7.54443 12.0716 9.54323 14.0704 12 14.0704C14.4568 14.0704 16.4556 12.0716 16.4556 9.61478C16.4556 7.15797 14.4569 5.15918 12 5.15918ZM12 12.1944C10.5777 12.1944 9.42046 11.0372 9.42046 9.61478C9.42046 8.19241 10.5777 7.03521 12 7.03521C13.4224 7.03521 14.5796 8.19241 14.5796 9.61478C14.5796 11.0372 13.4224 12.1944 12 12.1944Z" fill="white"/>
<path d="M12 0C6.69841 0 2.38525 4.3132 2.38525 9.61477V9.88055C2.38525 12.5618 3.92247 15.6863 6.95435 19.1671C9.15222 21.6905 11.3194 23.45 11.4105 23.5237L12 24L12.5895 23.5237C12.6807 23.45 14.8479 21.6905 17.0457 19.1671C20.0775 15.6863 21.6148 12.5618 21.6148 9.88059V9.61481C21.6148 4.3132 17.3016 0 12 0ZM19.7388 9.88059C19.7388 14.4118 13.9004 19.8968 12 21.5619C10.0991 19.8963 4.26129 14.4114 4.26129 9.88059V9.61481C4.26129 5.34769 7.73289 1.87608 12 1.87608C16.2671 1.87608 19.7388 5.34769 19.7388 9.61481V9.88059Z" fill="white"/>
</svg>
